####
#
# OBJ File Generated by Meshlab
#
####
# Object 3-faces.obj
#
# Vertices: 225
# Faces: 384
#
####
vn 1.570796 0.000000 1.570796
v 0.999999 1.000000 1.000001
vn 1.570796 0.000000 1.570796
v 0.999999 3.000000 1.000001
vn 1.570796 0.000000 1.570803
v 0.999998 1.000000 3.000000
vn 0.000000 0.000000 1.570796
v -1.000001 1.000000 3.000000
vn 1.570796 0.000000 1.570803
v 0.999998 3.000000 3.000000
vn 0.000000 0.000000 1.570796
v -1.000001 3.000000 3.000000
vn 0.000000 0.000000 1.570796
v 2.999999 1.000000 1.000002
vn 0.000000 0.000000 1.570796
v 2.999999 3.000000 1.000002
vn 3.141593 0.000000 3.141593
v 0.999999 2.000000 1.000001
vn 0.000000 0.000000 3.141593
v -0.000001 1.000000 3.000000
vn 0.000000 0.000000 3.141593
v -0.000001 3.000000 3.000000
vn 3.141593 0.000000 3.141606
v 0.999998 2.000000 3.000000
vn 0.000000 0.000000 3.141593
v -1.000001 2.000000 3.000000
vn 3.141593 0.000000 0.000000
v 0.999999 3.000000 2.000000
vn 3.141593 0.000000 0.000000
v 0.999999 1.000000 2.000000
vn 0.000000 0.000000 3.141593
v 2.999999 2.000000 1.000002
vn 0.000000 0.000000 3.141593
v 1.999999 3.000000 1.000001
vn 0.000000 0.000000 3.141593
v 1.999999 1.000000 1.000001
vn 0.000000 0.000000 6.283185
v 1.999999 2.000000 1.000001
vn 6.283185 0.000000 0.000000
v 0.999999 2.000000 2.000000
vn 0.000000 0.000000 6.283186
v -0.000001 2.000000 3.000000
vn 3.141593 0.000000 3.141593
v 0.999999 2.500000 1.000001
vn 0.000000 0.000000 3.141593
v -0.500001 1.000000 3.000000
vn 0.000000 0.000000 3.141593
v -0.500001 3.000000 3.000000
vn 3.141593 0.000000 3.141605
v 0.999998 2.500000 3.000000
vn 0.000000 0.000000 3.141593
v -1.000001 1.500000 3.000000
vn 3.141593 0.000000 0.000000
v 0.999999 3.000000 1.500000
vn 3.141593 0.000000 0.000000
v 0.999999 1.000000 2.500000
vn 0.000000 0.000000 3.141593
v 2.999999 2.500000 1.000002
vn -0.000007 0.000000 3.141593
v 2.499999 3.000000 1.000001
vn 0.000000 0.000000 3.141593
v 1.499999 1.000000 1.000001
vn 3.141593 0.000000 3.141593
v 0.999999 1.500000 1.000001
vn 0.000000 0.000000 3.141593
v 0.499998 1.000000 3.000000
vn 0.000000 0.000000 3.141593
v 0.499998 3.000000 3.000000
vn 3.141593 0.000000 3.141606
v 0.999998 1.500000 3.000000
vn 0.000000 0.000000 3.141593
v -1.000001 2.500000 3.000000
vn 3.141593 0.000000 0.000000
v 0.999999 3.000000 2.500000
vn 3.141593 0.000000 0.000000
v 0.999999 1.000000 1.500000
vn 0.000000 0.000000 3.141593
v 2.999999 1.500000 1.000002
vn 0.000000 0.000000 3.141593
v 1.499999 3.000000 1.000001
vn -0.000007 0.000000 3.141593
v 2.499999 1.000000 1.000001
vn -0.000013 0.000000 6.283185
v 2.499999 2.000000 1.000001
vn 0.000000 0.000000 6.283185
v 1.499999 2.000000 1.000001
vn 0.000000 0.000000 6.283185
v 1.999999 2.500000 1.000001
vn 0.000000 0.000000 6.283185
v 1.999999 1.500000 1.000001
vn 6.283185 0.000000 0.000000
v 0.999999 2.000000 2.500000
vn 6.283185 0.000000 0.000000
v 0.999999 2.000000 1.500000
vn 6.283185 0.000000 0.000000
v 0.999999 1.500000 2.000000
vn 6.283185 0.000000 0.000000
v 0.999999 2.500000 2.000000
vn 0.000000 0.000000 6.283185
v -0.000001 2.500000 3.000000
vn 0.000000 0.000000 6.283185
v -0.000001 1.500000 3.000000
vn 0.000000 0.000000 6.283185
v -0.500001 2.000000 3.000000
vn 0.000000 0.000000 6.283185
v 0.499998 2.000000 3.000000
vn 0.000000 0.000000 6.283185
v 0.499998 1.500000 3.000000
vn 0.000000 0.000000 6.283185
v -0.500001 1.500000 3.000000
vn 0.000000 0.000000 6.283185
v -0.500001 2.500000 3.000000
vn 6.283185 0.000000 0.000000
v 0.999999 2.500000 1.500000
vn 6.283185 0.000000 0.000000
v 0.999999 1.500000 1.500000
vn 6.283185 0.000000 0.000000
v 0.999999 1.500000 2.500000
vn 0.000000 0.000000 6.283185
v 1.499999 1.500000 1.000001
vn 0.000000 0.000000 6.283185
v 1.499999 2.500000 1.000001
vn -0.000013 0.000000 6.283185
v 2.499999 2.500000 1.000001
vn -0.000013 0.000000 6.283185
v 2.499999 1.500000 1.000001
vn 6.283185 0.000000 0.000000
v 0.999999 2.500000 2.500000
vn 0.000000 0.000000 6.283185
v 0.499998 2.500000 3.000000
vn 3.141593 0.000000 3.141593
v 0.999999 2.750000 1.000001
vn 0.000000 0.000000 3.141593
v -0.750001 1.000000 3.000000
vn 0.000000 0.000000 3.141593
v -0.750001 3.000000 3.000000
vn 3.141593 0.000000 3.141606
v 0.999998 2.750000 3.000000
vn 0.000000 0.000000 3.141593
v -1.000001 1.250000 3.000000
vn 3.141593 0.000000 0.000000
v 0.999999 3.000000 1.250000
vn 3.141593 0.000000 0.000006
v 0.999999 1.000000 2.750000
vn 0.000000 0.000000 3.141593
v 2.999999 2.750000 1.000002
vn -0.000007 0.000000 3.141593
v 2.749999 3.000000 1.000002
vn 0.000000 0.000000 3.141593
v 1.249999 1.000000 1.000001
vn 3.141593 0.000000 3.141593
v 0.999999 1.750000 1.000001
vn 0.000000 0.000000 3.141593
v 0.249998 1.000000 3.000000
vn 0.000000 0.000000 3.141593
v 0.249998 3.000000 3.000000
vn 3.141593 0.000000 3.141605
v 0.999998 1.750000 3.000000
vn 0.000000 0.000000 3.141593
v -1.000001 2.250000 3.000000
vn 3.141593 0.000000 0.000000
v 0.999999 3.000000 2.250000
vn 3.141593 0.000000 0.000000
v 0.999999 1.000000 1.750000
vn 0.000000 0.000000 3.141593
v 2.999999 1.750000 1.000002
vn 0.000000 0.000000 3.141593
v 1.749999 3.000000 1.000001
vn 0.000000 0.000000 3.141593
v 2.249999 1.000000 1.000001
vn -0.000013 0.000000 6.283185
v 2.749999 2.000000 1.000002
vn 0.000000 0.000000 6.283185
v 1.749999 2.000000 1.000001
vn 0.000000 0.000000 6.283185
v 1.999999 2.750000 1.000001
vn 0.000000 0.000000 6.283185
v 1.999999 1.750000 1.000001
vn 6.283185 0.000000 0.000013
v 0.999999 2.000000 2.750000
vn 6.283185 0.000000 0.000000
v 0.999999 2.000000 1.750000
vn 6.283185 0.000000 0.000000
v 0.999999 1.250000 2.000000
vn 6.283185 0.000000 0.000000
v 0.999999 2.250000 2.000000
vn 0.000000 0.000000 6.283185
v -0.000001 2.750000 3.000000
vn 0.000000 0.000000 6.283185
v -0.000001 1.750000 3.000000
vn 0.000000 0.000000 6.283185
v -0.750001 2.000000 3.000000
vn 0.000000 0.000000 6.283185
v 0.249998 2.000000 3.000000
vn 3.141593 0.000000 3.141593
v 0.999999 2.250000 1.000001
vn 0.000000 0.000000 3.141593
v -0.250001 1.000000 3.000000
vn 0.000000 0.000000 3.141593
v -0.250001 3.000000 3.000000
vn 3.141593 0.000000 3.141605
v 0.999998 2.250000 3.000000
vn 0.000000 0.000000 3.141593
v -1.000001 1.750000 3.000000
vn 3.141593 0.000000 0.000000
v 0.999999 3.000000 1.750000
vn 3.141593 0.000000 0.000000
v 0.999999 1.000000 2.250000
vn 0.000000 0.000000 3.141593
v 2.999999 2.250000 1.000002
vn 0.000000 0.000000 3.141593
v 2.249999 3.000000 1.000001
vn 0.000000 0.000000 3.141593
v 1.749999 1.000000 1.000001
vn 3.141593 0.000000 3.141593
v 0.999999 1.250000 1.000001
vn 0.000000 0.000000 3.141593
v 0.749998 1.000000 3.000000
vn 0.000000 0.000000 3.141593
v 0.749998 3.000000 3.000000
vn 3.141593 0.000000 3.141606
v 0.999998 1.250000 3.000000
vn 0.000000 0.000000 3.141593
v -1.000001 2.750000 3.000000
vn 3.141593 0.000000 0.000006
v 0.999999 3.000000 2.750000
vn 3.141593 0.000000 0.000000
v 0.999999 1.000000 1.250000
vn 0.000000 0.000000 3.141593
v 2.999999 1.250000 1.000002
vn 0.000000 0.000000 3.141593
v 1.249999 3.000000 1.000001
vn -0.000007 0.000000 3.141593
v 2.749999 1.000000 1.000002
vn 0.000000 0.000000 6.283185
v 2.249999 2.000000 1.000001
vn 0.000000 0.000000 6.283186
v 1.249999 2.000000 1.000001
vn 0.000000 0.000000 6.283185
v 1.999999 2.250000 1.000001
vn 0.000000 0.000000 6.283185
v 1.999999 1.250000 1.000001
vn 6.283185 0.000000 0.000000
v 0.999999 2.000000 2.250000
vn 6.283185 0.000000 0.000000
v 0.999999 2.000000 1.250000
vn 6.283185 0.000000 0.000000
v 0.999999 1.750000 2.000000
vn 6.283185 0.000000 0.000000
v 0.999999 2.750000 2.000000
vn 0.000000 0.000000 6.283185
v -0.000001 2.250000 3.000000
vn 0.000000 0.000000 6.283185
v -0.000001 1.250000 3.000000
vn 0.000000 0.000000 6.283185
v -0.250001 2.000000 3.000000
vn 0.000000 0.000000 6.283185
v 0.749998 2.000000 3.000000
vn 0.000000 0.000000 6.283185
v 0.499998 1.750000 3.000000
vn 0.000000 0.000000 6.283185
v 0.499998 1.250000 3.000000
vn 0.000000 0.000000 6.283185
v 0.249998 1.500000 3.000000
vn 0.000000 0.000000 6.283185
v 0.749998 1.500000 3.000000
vn 0.000000 0.000000 6.283185
v -0.500001 1.750000 3.000000
vn 0.000000 0.000000 6.283185
v -0.500001 1.250000 3.000000
vn 0.000000 0.000000 6.283185
v -0.750001 1.500000 3.000000
vn 0.000000 0.000000 6.283185
v -0.250001 1.500000 3.000000
vn 0.000000 0.000000 6.283185
v -0.500001 2.750000 3.000000
vn 0.000000 0.000000 6.283185
v -0.500001 2.250000 3.000000
vn 0.000000 0.000000 6.283185
v -0.750001 2.500000 3.000000
vn 0.000000 0.000000 6.283185
v -0.250001 2.500000 3.000000
vn 6.283185 0.000000 0.000000
v 0.999999 2.500000 1.750000
vn 6.283185 0.000000 0.000000
v 0.999999 2.500000 1.250000
vn 6.283185 0.000000 0.000000
v 0.999999 2.250000 1.500000
vn 6.283185 0.000000 0.000000
v 0.999999 2.750000 1.500000
vn 6.283185 0.000000 0.000000
v 0.999999 1.500000 1.750000
vn 6.283185 0.000000 0.000000
v 0.999999 1.500000 1.250000
vn 6.283185 0.000000 0.000000
v 0.999999 1.250000 1.500000
vn 6.283185 0.000000 0.000000
v 0.999999 1.750000 1.500000
vn 6.283185 0.000000 0.000013
v 0.999999 1.500000 2.750000
vn 6.283185 0.000000 0.000000
v 0.999999 1.500000 2.250000
vn 6.283185 0.000000 0.000000
v 0.999999 1.250000 2.500000
vn 6.283185 0.000000 0.000000
v 0.999999 1.750000 2.500000
vn 0.000000 0.000000 6.283185
v 1.749999 1.500000 1.000001
vn 0.000000 0.000000 6.283185
v 1.249999 1.500000 1.000001
vn 0.000000 0.000000 6.283185
v 1.499999 1.750000 1.000001
vn 0.000000 0.000000 6.283185
v 1.499999 1.250000 1.000001
vn 0.000000 0.000000 6.283185
v 1.749999 2.500000 1.000001
vn 0.000000 0.000000 6.283185
v 1.249999 2.500000 1.000001
vn 0.000000 0.000000 6.283185
v 1.499999 2.750000 1.000001
vn 0.000000 0.000000 6.283185
v 1.499999 2.250000 1.000001
vn -0.000013 0.000000 6.283185
v 2.749999 2.500000 1.000002
vn 0.000000 0.000000 6.283185
v 2.249999 2.500000 1.000001
vn -0.000013 0.000000 6.283185
v 2.499999 2.750000 1.000001
vn -0.000013 0.000000 6.283185
v 2.499999 2.250000 1.000001
vn -0.000013 0.000000 6.283185
v 2.749999 1.500000 1.000002
vn 0.000000 0.000000 6.283185
v 2.249999 1.500000 1.000001
vn -0.000013 0.000000 6.283185
v 2.499999 1.750000 1.000001
vn -0.000013 0.000000 6.283185
v 2.499999 1.250000 1.000001
vn 6.283185 0.000000 0.000013
v 0.999999 2.500000 2.750000
vn 6.283185 0.000000 0.000000
v 0.999999 2.500000 2.250000
vn 6.283185 0.000000 0.000000
v 0.999999 2.250000 2.500000
vn 6.283185 0.000000 0.000000
v 0.999999 2.750000 2.500000
vn 0.000000 0.000000 6.283185
v 0.499998 2.750000 3.000000
vn 0.000000 0.000000 6.283185
v 0.499998 2.250000 3.000000
vn 0.000000 0.000000 6.283185
v 0.249998 2.500000 3.000000
vn 0.000000 0.000000 6.283185
v 0.749998 2.500000 3.000000
vn 0.000000 0.000000 6.283185
v 0.749998 2.250000 3.000000
vn 0.000000 0.000000 6.283186
v 0.249998 2.250000 3.000000
vn 0.000000 0.000000 6.283186
v 0.249998 2.750000 3.000000
vn 6.283185 0.000000 0.000000
v 0.999999 2.750000 2.250000
vn 6.283185 0.000000 0.000000
v 0.999999 2.250000 2.250000
vn 6.283185 0.000000 0.000013
v 0.999999 2.250000 2.750000
vn 0.000000 0.000000 6.283185
v 2.249999 1.250000 1.000001
vn 0.000000 0.000000 6.283185
v 2.249999 1.750000 1.000001
vn -0.000013 0.000000 6.283185
v 2.749999 1.750000 1.000002
vn 0.000000 0.000000 6.283185
v 2.249999 2.250000 1.000001
vn 0.000000 0.000000 6.283185
v 2.249999 2.750000 1.000001
vn -0.000013 0.000000 6.283185
v 2.749999 2.750000 1.000002
vn 0.000000 0.000000 6.283186
v 1.249999 2.250000 1.000001
vn 0.000000 0.000000 6.283186
v 1.249999 2.750000 1.000001
vn 0.000000 0.000000 6.283185
v 1.749999 2.750000 1.000001
vn 0.000000 0.000000 6.283186
v 1.249999 1.250000 1.000001
vn 0.000000 0.000000 6.283186
v 1.249999 1.750000 1.000001
vn 0.000000 0.000000 6.283185
v 1.749999 1.750000 1.000001
vn 6.283185 0.000000 0.000000
v 0.999999 1.750000 2.250000
vn 6.283185 0.000000 0.000000
v 0.999999 1.250000 2.250000
vn 6.283185 0.000000 0.000013
v 0.999999 1.250000 2.750000
vn 6.283185 0.000000 0.000000
v 0.999999 1.750000 1.250000
vn 6.283185 0.000000 0.000000
v 0.999999 1.250000 1.250000
vn 6.283185 0.000000 0.000000
v 0.999999 1.250000 1.750000
vn 6.283185 0.000000 0.000000
v 0.999999 2.750000 1.250000
vn 6.283185 0.000000 0.000000
v 0.999999 2.250000 1.250000
vn 6.283185 0.000000 0.000000
v 0.999999 2.250000 1.750000
vn 0.000000 0.000000 6.283185
v -0.250001 2.250000 3.000000
vn 0.000000 0.000000 6.283185
v -0.750001 2.250000 3.000000
vn 0.000000 0.000000 6.283185
v -0.750001 2.750000 3.000000
vn 0.000000 0.000000 6.283185
v -0.250001 1.250000 3.000000
vn 0.000000 0.000000 6.283185
v -0.750001 1.250000 3.000000
vn 0.000000 0.000000 6.283185
v -0.750001 1.750000 3.000000
vn 0.000000 0.000000 6.283185
v 0.749998 1.250000 3.000000
vn 0.000000 0.000000 6.283186
v 0.249998 1.250000 3.000000
vn 0.000000 0.000000 6.283186
v 0.249998 1.750000 3.000000
vn 0.000000 0.000000 6.283185
v 0.749998 1.750000 3.000000
vn 0.000000 0.000000 6.283185
v -0.250001 1.750000 3.000000
vn 0.000000 0.000000 6.283185
v -0.250001 2.750000 3.000000
vn 6.283185 0.000000 0.000000
v 0.999999 2.750000 1.750000
vn 6.283185 0.000000 0.000000
v 0.999999 1.750000 1.750000
vn 6.283185 0.000000 0.000013
v 0.999999 1.750000 2.750000
vn 0.000000 0.000000 6.283185
v 1.749999 1.250000 1.000001
vn 0.000000 0.000000 6.283185
v 1.749999 2.250000 1.000001
vn -0.000013 0.000000 6.283185
v 2.749999 2.250000 1.000002
vn -0.000013 0.000000 6.283185
v 2.749999 1.250000 1.000002
vn 6.283185 0.000000 0.000013
v 0.999999 2.750000 2.750000
vn 0.000000 0.000000 6.283185
v 0.749998 2.750000 3.000000
# 225 vertices, 0 vertices normals

f 225//225 69//69 5//5
f 225//225 5//5 110//110
f 224//224 113//113 5//5
f 224//224 5//5 69//69
f 223//223 117//117 7//7
f 223//223 7//7 115//115
f 222//222 86//86 16//16
f 222//222 16//16 105//105
f 221//221 87//87 19//19
f 221//221 19//19 120//120
f 220//220 107//107 18//18
f 220//220 18//18 121//121
f 219//219 90//90 12//12
f 219//219 12//12 79//79
f 218//218 91//91 20//20
f 218//218 20//20 124//124
f 217//217 103//103 14//14
f 217//217 14//14 125//125
f 216//216 94//94 11//11
f 216//216 11//11 100//100
f 215//215 95//95 21//21
f 215//215 21//21 128//128
f 214//214 79//79 12//12
f 214//214 12//12 129//129
f 213//213 130//130 53//53
f 213//213 53//53 97//97
f 212//212 131//131 54//54
f 212//212 54//54 132//132
f 211//211 111//111 35//35
f 211//211 35//35 133//133
f 210//210 134//134 52//52
f 210//210 52//52 96//96
f 209//209 135//135 55//55
f 209//209 55//55 136//136
f 208//208 127//127 51//51
f 208//208 51//51 137//137
f 207//207 138//138 24//24
f 207//207 24//24 68//68
f 206//206 139//139 56//56
f 206//206 56//56 140//140
f 205//205 126//126 50//50
f 205//205 50//50 141//141
f 204//204 142//142 49//49
f 204//204 49//49 93//93
f 203//203 143//143 57//57
f 203//203 57//57 144//144
f 202//202 71//71 27//27
f 202//202 27//27 145//145
f 201//201 146//146 48//48
f 201//201 48//48 92//92
f 200//200 147//147 58//58
f 200//200 58//58 148//148
f 199//199 123//123 47//47
f 199//199 47//47 149//149
f 198//198 150//150 35//35
f 198//198 35//35 111//111
f 197//197 151//151 59//59
f 197//197 59//59 152//152
f 196//196 122//122 46//46
f 196//196 46//46 153//153
f 195//195 154//154 45//45
f 195//195 45//45 89//89
f 194//194 155//155 60//60
f 194//194 60//60 156//156
f 193//193 75//75 31//31
f 193//193 31//31 157//157
f 192//192 158//158 44//44
f 192//192 44//44 88//88
f 191//191 159//159 61//61
f 191//191 61//61 160//160
f 190//190 119//119 43//43
f 190//190 43//43 161//161
f 189//189 162//162 29//29
f 189//189 29//29 73//73
f 188//188 163//163 62//62
f 188//188 62//62 164//164
f 187//187 118//118 42//42
f 187//187 42//42 165//165
f 186//186 166//166 39//39
f 186//186 39//39 83//83
f 185//185 167//167 63//63
f 185//185 63//63 168//168
f 184//184 85//85 41//41
f 184//184 41//41 169//169
f 183//183 170//170 25//25
f 183//183 25//25 101//101
f 182//182 171//171 64//64
f 182//182 64//64 172//172
f 181//181 81//81 37//37
f 181//181 37//37 173//173
f 180//180 174//174 34//34
f 180//180 34//34 78//78
f 179//179 175//175 65//65
f 179//179 65//65 176//176
f 178//178 101//101 25//25
f 178//178 25//25 177//177
f 175//175 178//178 177//177
f 175//175 177//177 65//65
f 53//53 129//129 178//178
f 53//53 178//178 175//175
f 129//129 12//12 101//101
f 129//129 101//101 178//178
f 126//126 179//179 176//176
f 126//126 176//176 50//50
f 21//21 97//97 179//179
f 21//21 179//179 126//126
f 97//97 53//53 175//175
f 97//97 175//175 179//179
f 94//94 180//180 78//78
f 94//94 78//78 11//11
f 50//50 176//176 180//180
f 50//50 180//180 94//94
f 176//176 65//65 174//174
f 176//176 174//174 180//180
f 171//171 181//181 173//173
f 171//171 173//173 64//64
f 49//49 125//125 181//181
f 49//49 181//181 171//171
f 125//125 14//14 81//81
f 125//125 81//81 181//181
f 122//122 182//182 172//172
f 122//122 172//172 46//46
f 20//20 93//93 182//182
f 20//20 182//182 122//122
f 93//93 49//49 171//171
f 93//93 171//171 182//182
f 90//90 183//183 101//101
f 90//90 101//101 12//12
f 46//46 172//172 183//183
f 46//46 183//183 90//90
f 172//172 64//64 170//170
f 172//172 170//170 183//183
f 167//167 184//184 169//169
f 167//167 169//169 63//63
f 45//45 121//121 184//184
f 45//45 184//184 167//167
f 121//121 18//18 85//85
f 121//121 85//85 184//184
f 118//118 185//185 168//168
f 118//118 168//168 42//42
f 19//19 89//89 185//185
f 19//19 185//185 118//118
f 89//89 45//45 167//167
f 89//89 167//167 185//185
f 86//86 186//186 83//83
f 86//86 83//83 16//16
f 42//42 168//168 186//186
f 42//42 186//186 86//86
f 168//168 63//63 166//166
f 168//168 166//166 186//186
f 163//163 187//187 165//165
f 163//163 165//165 62//62
f 44//44 120//120 187//187
f 44//44 187//187 163//163
f 120//120 19//19 118//118
f 120//120 118//118 187//187
f 106//106 188//188 164//164
f 106//106 164//164 30//30
f 17//17 88//88 188//188
f 17//17 188//188 106//106
f 88//88 44//44 163//163
f 88//88 163//163 188//188
f 74//74 189//189 73//73
f 74//74 73//73 8//8
f 30//30 164//164 189//189
f 30//30 189//189 74//74
f 164//164 62//62 162//162
f 164//164 162//162 189//189
f 159//159 190//190 161//161
f 159//159 161//161 61//61
f 22//22 98//98 190//190
f 22//22 190//190 159//159
f 98//98 9//9 119//119
f 98//98 119//119 190//190
f 116//116 191//191 160//160
f 116//116 160//160 40//40
f 2//2 66//66 191//191
f 2//2 191//191 116//116
f 66//66 22//22 159//159
f 66//66 159//159 191//191
f 84//84 192//192 88//88
f 84//84 88//88 17//17
f 40//40 160//160 192//192
f 40//40 192//192 84//84
f 160//160 61//61 158//158
f 160//160 158//158 192//192
f 155//155 193//193 157//157
f 155//155 157//157 60//60
f 32//32 108//108 193//193
f 32//32 193//193 155//155
f 108//108 1//1 75//75
f 108//108 75//75 193//193
f 119//119 194//194 156//156
f 119//119 156//156 43//43
f 9//9 76//76 194//194
f 9//9 194//194 119//119
f 76//76 32//32 155//155
f 76//76 155//155 194//194
f 87//87 195//195 89//89
f 87//87 89//89 19//19
f 43//43 156//156 195//195
f 43//43 195//195 87//87
f 156//156 60//60 154//154
f 156//156 154//154 195//195
f 151//151 196//196 153//153
f 151//151 153//153 59//59
f 48//48 124//124 196//196
f 48//48 196//196 151//151
f 124//124 20//20 122//122
f 124//124 122//122 196//196
f 104//104 197//197 152//152
f 104//104 152//152 28//28
f 15//15 92//92 197//197
f 15//15 197//197 104//104
f 92//92 48//48 151//151
f 92//92 151//151 197//197
f 72//72 198//198 111//111
f 72//72 111//111 3//3
f 28//28 152//152 198//198
f 28//28 198//198 72//72
f 152//152 59//59 150//150
f 152//152 150//150 198//198
f 147//147 199//199 149//149
f 147//147 149//149 58//58
f 32//32 76//76 199//199
f 32//32 199//199 147//147
f 76//76 9//9 123//123
f 76//76 123//123 199//199
f 114//114 200//200 148//148
f 114//114 148//148 38//38
f 1//1 108//108 200//200
f 1//1 200//200 114//114
f 108//108 32//32 147//147
f 108//108 147//147 200//200
f 82//82 201//201 92//92
f 82//82 92//92 15//15
f 38//38 148//148 201//201
f 38//38 201//201 82//82
f 148//148 58//58 146//146
f 148//148 146//146 201//201
f 143//143 202//202 145//145
f 143//143 145//145 57//57
f 22//22 66//66 202//202
f 22//22 202//202 143//143
f 66//66 2//2 71//71
f 66//66 71//71 202//202
f 123//123 203//203 144//144
f 123//123 144//144 47//47
f 9//9 98//98 203//203
f 9//9 203//203 123//123
f 98//98 22//22 143//143
f 98//98 143//143 203//203
f 91//91 204//204 93//93
f 91//91 93//93 20//20
f 47//47 144//144 204//204
f 47//47 204//204 91//91
f 144//144 57//57 142//142
f 144//144 142//142 204//204
f 139//139 205//205 141//141
f 139//139 141//141 56//56
f 52//52 128//128 205//205
f 52//52 205//205 139//139
f 128//128 21//21 126//126
f 128//128 126//126 205//205
f 80//80 206//206 140//140
f 80//80 140//140 36//36
f 13//13 96//96 206//206
f 13//13 206//206 80//80
f 96//96 52//52 139//139
f 96//96 139//139 206//206
f 112//112 207//207 68//68
f 112//112 68//68 6//6
f 36//36 140//140 207//207
f 36//36 207//207 112//112
f 140//140 56//56 138//138
f 140//140 138//138 207//207
f 135//135 208//208 137//137
f 135//135 137//137 55//55
f 23//23 99//99 208//208
f 23//23 208//208 135//135
f 99//99 10//10 127//127
f 99//99 127//127 208//208
f 70//70 209//209 136//136
f 70//70 136//136 26//26
f 4//4 67//67 209//209
f 4//4 209//209 70//70
f 67//67 23//23 135//135
f 67//67 135//135 209//209
f 102//102 210//210 96//96
f 102//102 96//96 13//13
f 26//26 136//136 210//210
f 26//26 210//210 102//102
f 136//136 55//55 134//134
f 136//136 134//134 210//210
f 131//131 211//211 133//133
f 131//131 133//133 54//54
f 33//33 109//109 211//211
f 33//33 211//211 131//131
f 109//109 3//3 111//111
f 109//109 111//111 211//211
f 127//127 212//212 132//132
f 127//127 132//132 51//51
f 10//10 77//77 212//212
f 10//10 212//212 127//127
f 77//77 33//33 131//131
f 77//77 131//131 212//212
f 95//95 213//213 97//97
f 95//95 97//97 21//21
f 51//51 132//132 213//213
f 51//51 213//213 95//95
f 132//132 54//54 130//130
f 132//132 130//130 213//213
f 130//130 214//214 129//129
f 130//130 129//129 53//53
f 54//54 133//133 214//214
f 54//54 214//214 130//130
f 133//133 35//35 79//79
f 133//133 79//79 214//214
f 134//134 215//215 128//128
f 134//134 128//128 52//52
f 55//55 137//137 215//215
f 55//55 215//215 134//134
f 137//137 51//51 95//95
f 137//137 95//95 215//215
f 138//138 216//216 100//100
f 138//138 100//100 24//24
f 56//56 141//141 216//216
f 56//56 216//216 138//138
f 141//141 50//50 94//94
f 141//141 94//94 216//216
f 142//142 217//217 125//125
f 142//142 125//125 49//49
f 57//57 145//145 217//217
f 57//57 217//217 142//142
f 145//145 27//27 103//103
f 145//145 103//103 217//217
f 146//146 218//218 124//124
f 146//146 124//124 48//48
f 58//58 149//149 218//218
f 58//58 218//218 146//146
f 149//149 47//47 91//91
f 149//149 91//91 218//218
f 150//150 219//219 79//79
f 150//150 79//79 35//35
f 59//59 153//153 219//219
f 59//59 219//219 150//150
f 153//153 46//46 90//90
f 153//153 90//90 219//219
f 154//154 220//220 121//121
f 154//154 121//121 45//45
f 60//60 157//157 220//220
f 60//60 220//220 154//154
f 157//157 31//31 107//107
f 157//157 107//107 220//220
f 158//158 221//221 120//120
f 158//158 120//120 44//44
f 61//61 161//161 221//221
f 61//61 221//221 158//158
f 161//161 43//43 87//87
f 161//161 87//87 221//221
f 162//162 222//222 105//105
f 162//162 105//105 29//29
f 62//62 165//165 222//222
f 62//62 222//222 162//162
f 165//165 42//42 86//86
f 165//165 86//86 222//222
f 166//166 223//223 115//115
f 166//166 115//115 39//39
f 63//63 169//169 223//223
f 63//63 223//223 166//166
f 169//169 41//41 117//117
f 169//169 117//117 223//223
f 170//170 224//224 69//69
f 170//170 69//69 25//25
f 64//64 173//173 224//224
f 64//64 224//224 170//170
f 173//173 37//37 113//113
f 173//173 113//113 224//224
f 174//174 225//225 110//110
f 174//174 110//110 34//34
f 65//65 177//177 225//225
f 65//65 225//225 174//174
f 177//177 25//25 69//69
f 177//177 69//69 225//225
# 384 faces, 0 coords texture

# End of File